<mxfile host="app.diagrams.net" agent="Mozilla/5.0 (Windows NT 10.0; Win64; x64) AppleWebKit/537.36 (KHTML, like Gecko) Chrome/132.0.0.0 Safari/537.36 OPR/117.0.0.0" version="26.1.3">
  <diagram name="Page-1" id="jJ7n3A1it99_hdllu_8M">
    <mxGraphModel dx="3256" dy="864" grid="1" gridSize="10" guides="1" tooltips="1" connect="1" arrows="1" fold="1" page="1" pageScale="1" pageWidth="1654" pageHeight="1169" math="0" shadow="0">
      <root>
        <mxCell id="0" />
        <mxCell id="1" parent="0" />
        <mxCell id="_tZKHd5Szc6mgcDDZj10-1" value="" style="rounded=1;whiteSpace=wrap;html=1;fillColor=light-dark(#1D3461,#FF8000);strokeColor=none;" parent="1" vertex="1">
          <mxGeometry x="-1567" y="395" width="1480" height="380" as="geometry" />
        </mxCell>
        <mxCell id="_tZKHd5Szc6mgcDDZj10-7" value="&lt;div style=&quot;&quot;&gt;&lt;font style=&quot;color: light-dark(rgb(29, 52, 97), rgb(237, 237, 237)); font-size: 250px;&quot; data-font-src=&quot;https://fonts.googleapis.com/css?family=Gochi+Hand&quot; face=&quot;Gochi Hand&quot;&gt;eZe&lt;/font&gt;&lt;/div&gt;" style="text;html=1;align=center;verticalAlign=middle;whiteSpace=wrap;rounded=0;" parent="1" vertex="1">
          <mxGeometry x="-1561.5" y="480" width="1470" height="164" as="geometry" />
        </mxCell>
        <mxCell id="L1553gj4u3mLCfDL6udC-1" value="&lt;font style=&quot;font-size: 50px;&quot; data-font-src=&quot;https://fonts.googleapis.com/css?family=Gochi+Hand&quot; face=&quot;Gochi Hand&quot;&gt;Equity Analytics&lt;/font&gt;" style="text;html=1;align=center;verticalAlign=middle;whiteSpace=wrap;rounded=0;" vertex="1" parent="1">
          <mxGeometry x="-1018" y="660" width="383" height="30" as="geometry" />
        </mxCell>
      </root>
    </mxGraphModel>
  </diagram>
</mxfile>
